<svg width="20" height="20" viewBox="0 0 20 20" fill="none" xmlns="http://www.w3.org/2000/svg">
<path d="M19.3 14.4661H6.40002V10.2661C6.40002 10.1836 6.33252 10.0748 6.22752 10.0261C6.12252 9.97731 5.99877 9.99606 5.90877 10.0673L0.508774 14.5673C0.439887 14.6273 0.400024 14.7098 0.400024 14.7661C0.400024 14.8223 0.439849 14.9394 0.507837 14.9968L5.90784 19.4968C5.96127 19.5773 6.03252 19.5998 6.10002 19.5998C6.14337 19.5998 6.18672 19.5904 6.22719 19.5717C6.33252 19.5211 6.40002 19.4161 6.40002 19.2661V15.0661H19.3C19.4659 15.0661 19.6 14.9315 19.6 14.7662C19.6 14.6348 19.465 14.4661 19.3 14.4661ZM5.80002 18.6586L1.16877 14.7998L5.80002 10.9411V18.6586ZM0.700024 5.46606H13.6V9.66606C13.6 9.78208 13.6674 9.88873 13.7729 9.93793C13.8138 9.98856 13.855 9.96606 13.9 9.96606C13.9692 9.96606 14.0371 9.94262 14.0922 9.89691L19.4922 5.39691C19.5588 5.37231 19.6 5.28981 19.6 5.16606C19.6 5.04231 19.5602 4.99228 19.4922 4.93483L14.0922 0.434834C14.0031 0.360996 13.8778 0.346934 13.7729 0.393809C13.6675 0.476159 13.6 0.582772 13.6 0.698797V4.8988H0.700024C0.534199 4.8988 0.400024 5.03417 0.400024 5.19943C0.400024 5.36481 0.534199 5.46606 0.700024 5.46606ZM14.2 1.33993L18.8313 5.19868L14.2 9.05856V1.33993Z" fill="black"/>
</svg>
