<svg width="20" height="20" viewBox="0 0 20 20" fill="none" xmlns="http://www.w3.org/2000/svg">
<path d="M0.400024 3.01023C0.400024 2.23135 1.03152 1.59985 1.8104 1.59985H18.19C18.97 1.59985 19.6 2.23135 19.6 3.01023C19.6 3.33048 19.4913 3.64135 19.2925 3.89148L12.4 12.5049V17.4211C12.4 17.9611 11.9613 18.3999 11.4213 18.3999C11.215 18.3999 10.9788 18.3361 10.8438 18.2124L8.21877 16.3036C7.82877 16.0186 7.60002 15.5686 7.60002 15.0886V12.5049L0.709099 3.89148C0.509037 3.64135 0.400024 3.33048 0.400024 3.01023ZM1.8104 2.19985C1.36302 2.19985 1.00002 2.56285 1.00002 3.01023C1.00002 3.19435 1.06265 3.37285 1.17777 3.51648L8.13252 12.2124C8.17752 12.2649 8.20002 12.3324 8.20002 12.3661V15.0886C8.20002 15.3774 8.33877 15.6474 8.57127 15.8161L11.1963 17.7286C11.2638 17.7736 11.3425 17.7999 11.4213 17.7999C11.6313 17.7999 11.8 17.6311 11.8 17.4211V12.3661C11.8 12.3324 11.8225 12.2649 11.8675 12.2124L18.8238 3.51648C18.9363 3.37285 19 3.19435 19 3.01023C19 2.56285 18.6363 2.19985 18.19 2.19985H1.8104Z" fill="black"/>
</svg>
