<svg width="24" height="24" viewBox="0 0 24 24" fill="none" xmlns="http://www.w3.org/2000/svg">
<path d="M11.1281 0.561094C11.4047 0.438469 11.7 0.375 12 0.375C12.3 0.375 12.5953 0.438469 12.8719 0.561094L23.0203 5.12813C23.4047 5.28281 23.625 5.58281 23.625 6C23.625 6.375 23.4047 6.71719 23.0203 6.87188L12.8719 11.4375C12.5953 11.5594 12.3 11.625 12 11.625C11.7 11.625 11.4047 11.5594 11.1281 11.4375L0.938906 6.87188C0.595781 6.71719 0.375 6.375 0.375 6C0.375 5.58281 0.595781 5.28281 0.938906 5.12813L11.1281 0.561094ZM12 1.125C11.8078 1.125 11.6156 1.16625 11.3953 1.24547L1.24547 5.8125C1.17234 5.84531 1.125 5.92031 1.125 6C1.125 6.07969 1.17234 6.15469 1.24547 6.14531L11.3953 10.7531C11.6156 10.8328 11.8078 10.875 12 10.875C12.1922 10.875 12.3844 10.8328 12.5625 10.7531L22.7531 6.14531C22.7859 6.15469 22.875 6.07969 22.875 6C22.875 5.92031 22.7859 5.84531 22.7531 5.8125L12.5625 1.24547C12.3844 1.16625 12.1922 1.125 12 1.125ZM3.34219 10.4625C3.42703 10.65 3.34219 10.8328 3.15328 10.9594L1.24547 11.8125C1.17234 11.8453 1.125 11.9203 1.125 12C1.125 12.0797 1.17234 12.1547 1.24547 12.1453L11.3953 16.7531C11.6156 16.8328 11.8078 16.875 12 16.875C12.1922 16.875 12.3844 16.8328 12.5625 16.7531L22.7531 12.1453C22.7859 12.1547 22.875 12.0797 22.875 12C22.875 11.9203 22.7859 11.8453 22.7531 11.8125L20.8453 10.9594C20.6578 10.8328 20.5734 10.65 20.6578 10.4625C20.7422 10.275 20.9625 10.1906 21.1547 10.275L23.0203 11.1281C23.4047 11.2828 23.625 11.5828 23.625 12C23.625 12.375 23.4047 12.7172 23.0203 12.8719L12.8719 17.4375C12.5953 17.5594 12.3 17.625 12 17.625C11.7 17.625 11.4047 17.5594 11.1281 17.4375L0.938906 12.8719C0.595781 12.7172 0.375 12.375 0.375 12C0.375 11.5828 0.595781 11.2828 0.938906 11.1281L2.84672 10.275C3.03562 10.1906 3.25734 10.275 3.34219 10.4625ZM1.24547 17.8125C1.17234 17.8453 1.125 17.9203 1.125 18C1.125 18.0797 1.17234 18.1547 1.24547 18.1453L11.3953 22.7531C11.6156 22.8328 11.8078 22.875 12 22.875C12.1922 22.875 12.3844 22.8328 12.5625 22.7531L22.7531 18.1453C22.7859 18.1547 22.875 18.0797 22.875 18C22.875 17.9203 22.7859 17.8453 22.7531 17.8125L20.8453 16.9594C20.6578 16.8328 20.5734 16.65 20.6578 16.4625C20.7422 16.275 20.9625 16.1906 21.1547 16.275L23.0203 17.1281C23.4047 17.2828 23.625 17.5828 23.625 18C23.625 18.375 23.4047 18.7172 23.0203 18.8719L12.8719 23.4375C12.5953 23.5594 12.3 23.625 12 23.625C11.7 23.625 11.4047 23.5594 11.1281 23.4375L0.938906 18.8719C0.595781 18.7172 0.375 18.375 0.375 18C0.375 17.5828 0.595781 17.2828 0.938906 17.1281L2.84672 16.275C3.03562 16.1906 3.25734 16.275 3.34219 16.4625C3.42703 16.65 3.34219 16.8328 3.15328 16.9594L1.24547 17.8125Z" fill="black"/>
</svg>
