<svg width="24" height="24" viewBox="0 0 24 24" fill="none" xmlns="http://www.w3.org/2000/svg">
<path d="M0.320625 16.79L8.445 3.83788C8.69625 3.44075 9.13125 3.2 9.56625 3.2C10.0688 3.2 10.5038 3.44075 10.7513 3.83788L15.4763 11.3638L17.2838 8.40125C17.4038 8.15375 17.7075 8 18 8C18.2925 8 18.5625 8.15375 18.7163 8.40125L23.6663 16.5163C23.8838 16.8725 24 17.2887 24 17.7087C24 18.9725 22.9725 20 21.7088 20H2.09663C0.938625 20 0 19.0288 0 17.9038C0 17.51 0.11115 17.1237 0.320662 16.79H0.320625ZM18.3713 17.1087L10.245 4.15663C10.1063 3.93463 9.82875 3.76625 9.56625 3.76625C9.3375 3.76625 9.09375 3.93463 8.955 4.15663L0.82875 17.1087C0.679125 17.345 0.56625 17.6225 0.56625 17.9038C0.56625 18.7288 1.27013 19.4 2.09663 19.4H17.1038C17.9288 19.4 18.6 18.7288 18.6 17.9038C18.6 17.6225 18.5212 17.345 18.3713 17.1087ZM18.8775 16.79C19.0875 17.1237 19.2 17.51 19.2 17.9038C19.2 18.4888 18.96 19.0212 18.57 19.4H21.7088C22.6425 19.4 23.4 18.6425 23.4 17.7087C23.4 17.3975 23.3138 17.0938 23.1525 16.8275L18.2025 8.7125C18.1613 8.645 18.0825 8.56625 18 8.56625C17.9175 8.56625 17.8388 8.645 17.7975 8.7125L15.8325 11.9338L18.8775 16.79Z" fill="black"/>
</svg>
