<svg width="20" height="18" viewBox="0 0 20 18" fill="none" xmlns="http://www.w3.org/2000/svg">
<path d="M20 9.24974C20 9.43484 19.8269 9.58628 19.6154 9.58628H10.3846V17.6632C10.3846 17.8492 10.2126 18 10 18C9.7874 18 9.61539 17.8483 9.61539 17.6632V9.58628H0.384615C0.172019 9.58628 0 9.43602 0 9.25C0 9.06465 0.172115 8.91321 0.384615 8.91321H9.61539V0.836286C9.61539 0.650264 9.7874 0.5 10 0.5C10.2126 0.5 10.3846 0.650348 10.3846 0.836286V8.91321H19.6154C19.8269 8.91321 20 9.06465 20 9.24974Z" fill="black"/>
</svg>
