<svg width="24" height="24" viewBox="0 0 24 24" fill="none" xmlns="http://www.w3.org/2000/svg">
<path d="M23.892 23.3578L16.8982 16.3641C18.506 14.6297 19.4576 12.3094 19.4576 9.75C19.4576 4.36406 15.0921 0 9.70758 0C4.32305 0 -0.000244141 4.36547 -0.000244141 9.75C-0.000244141 15.1345 4.36477 19.5 9.70758 19.5C12.2646 19.5 14.5873 18.5077 16.3263 16.8966L23.3201 23.8903C23.4326 23.9625 23.5263 24 23.5826 24C23.6388 24 23.7745 23.9634 23.8477 23.8901C24.0373 23.7422 24.0373 23.5078 23.892 23.3578ZM9.70758 18.75C4.74352 18.75 0.707578 14.7127 0.707578 9.75C0.707578 4.78734 4.74492 0.75 9.70758 0.75C14.6702 0.75 18.7076 4.78734 18.7076 9.75C18.7076 14.7127 14.7138 18.75 9.70758 18.75Z" fill="black"/>
</svg>
